<svg xmlns="http://www.w3.org/2000/svg" id="doosan" aria-hidden="true" role="img" width="70" height="70" viewBox="0 0 266.34 225.33">
  <style>
    /* <![CDATA[ */
    .cls-1 {
      fill: #fff;
    }
    .cls-2 {
      fill: #131230;
    }
    .cls-3 {
      fill: #c7c6c6;
    }
    .cls-4 {
      fill: #ed1c24;
    }
    /* ]]> */
  </style>
  <g class="logo">

    <g class="circle">
      <circle class="cls-1 circle-1" cx="132.78" cy="112.66" r="112.66"/>
      <circle class="cls-2 circle-2" cx="132.78" cy="112.57" r="109.55"/>
      <circle class="cls-1 circle-3" cx="132.9" cy="112.48" r="85.51"/>
    </g>

    <g class="line">
      <path
        class="cls-3 line-1"
        d="M111.42,111.79c0-.18,0-.36,0-.55l6.13,3.42,1-1.79-7.19-4q-.11-4-.5-8l6.48,3.16.9-1.84-7.65-3.74q-.48-4-1.25-7.82l7,2.27.64-2-8.07-2.63c-.51-2.32-1.1-4.6-1.75-6.85l6.81,1.39.41-2-7.87-1.61c-.61-2-1.29-3.92-2-5.85l7.1,1.45.41-2-8.39-1.71q-1.36-3.38-2.93-6.65l7.23.77.21-2-8.51-.9c-1.16-2.29-2.42-4.53-3.74-6.72h7V53.48H94.61c-1.35-2.15-2.79-4.24-4.29-6.28L97,46.65l-.17-2-7.93.66c-.69-.89-1.37-1.79-2.08-2.66L84.13,44c.76.93,1.5,1.87,2.23,2.82l-2.9,7.87,1.93.71,2.44-6.62c1.51,2.06,3,4.16,4.32,6.32l-3.42,7.32,1.86.87,2.83-6.07q2,3.27,3.68,6.68l-4,6.66,1.76,1.06,3.33-5.53c1,2.09,1.91,4.23,2.77,6.4l-4.64,6.25L98,80l3.86-5.21q1,2.63,1.81,5.33l-5,6.67L100.35,88l4-5.43q1,3.35,1.69,6.79l-5.34,5.71,1.5,1.4,4.33-4.64q.68,3.58,1.11,7.25L101.59,104l1.29,1.6,5.07-4.1c.24,2.49.38,5,.44,7.55l-6.58,4.74,1.2,1.67,5.43-3.91c0,.07,0,.13,0,.2,0,2.05-.08,4.09-.19,6.11l-6.9,4,1,1.78,5.7-3.32c-.16,2-.36,4-.63,5.94l-7.3,3.73.94,1.83,6-3.06c-.33,2.07-.71,4.12-1.16,6.15l-7.26,3.27.84,1.87,5.8-2.61c-.48,1.93-1,3.84-1.58,5.73l-7.43,2.93.75,1.91,5.85-2.3q-1,3.06-2.23,6l-7.57,2.12.56,2,6-1.68q-1.16,2.67-2.47,5.27l-7.74,1.4.37,2L96,161.8q-1.31,2.46-2.75,4.84l-7.94.58.15,2,6.48-.47c-1,1.5-2,3-3,4.42l-7.57.13,0,2.06,6-.11c-1.07,1.43-2.16,2.85-3.29,4.22l1.65,2.65c1.63-1.94,3.18-4,4.68-6L93.8,183l1.85-.9-3.82-7.83q1.5-2.16,2.9-4.39l3.51,6.29,1.79-1L96,167.87C97,166.09,98,164.28,99,162.43l4.24,6,1.68-1.18-4.87-6.9c.95-1.91,1.86-3.85,2.7-5.82l4.81,5.59,1.56-1.34-5.5-6.4c.86-2.15,1.67-4.33,2.4-6.55l5.3,5,1.42-1.49-6-5.73q.93-3.05,1.68-6.18l5.52,4.76,1.34-1.55-6.34-5.46c.45-2.06.83-4.14,1.16-6.24l5.52,4.3,1.26-1.62-6.42-5c.29-2.12.49-4.27.66-6.43l5.85,4.06,1.17-1.69-6.86-4.77C111.34,115.82,111.42,113.81,111.42,111.79Z"/>
      <path
        class="cls-3 line-2"
        d="M184.45,173.35l-7.57-.13c-1-1.45-2-2.92-3-4.42l6.48.47.15-2-7.94-.58q-1.43-2.38-2.75-4.83l6.18,1.12.37-2-7.74-1.4q-1.3-2.6-2.47-5.27l6,1.68.55-2-7.57-2.12q-1.21-3-2.23-6l5.85,2.3.75-1.91-7.43-2.92c-.58-1.89-1.1-3.8-1.58-5.73l5.8,2.61.84-1.87L159.91,135c-.45-2-.82-4.08-1.16-6.15l6,3.06.94-1.83-7.3-3.73c-.27-2-.47-3.95-.63-5.94l5.7,3.32,1-1.78-6.89-4c-.11-2-.19-4.06-.19-6.12,0-.07,0-.13,0-.2l5.42,3.91,1.2-1.67-6.57-4.74c.06-2.54.2-5.06.44-7.55l5.07,4.1,1.29-1.6-6.09-4.92q.43-3.67,1.11-7.25l4.33,4.64,1.5-1.4-5.34-5.71q.74-3.44,1.69-6.79l4,5.43,1.65-1.23-4.95-6.67q.84-2.7,1.81-5.33L167.84,80l1.65-1.22-4.63-6.24c.86-2.17,1.78-4.3,2.77-6.4L171,71.67l1.76-1.06-4-6.65q1.72-3.42,3.68-6.69l2.83,6.07,1.86-.87-3.41-7.32C175,53,176.48,50.89,178,48.83l2.44,6.62,1.93-.71-2.9-7.87c.73-1,1.47-1.9,2.24-2.83L179,42.6c-.71.87-1.4,1.77-2.08,2.66L169,44.6l-.17,2,6.65.56c-1.5,2-2.93,4.13-4.29,6.28H163v2.05h7c-1.32,2.19-2.57,4.43-3.74,6.72l-8.51.9.22,2,7.23-.77q-1.57,3.27-2.93,6.65l-8.39,1.71.41,2,7.1-1.45c-.72,1.93-1.4,3.87-2,5.85l-7.87,1.61.41,2,6.81-1.39c-.65,2.26-1.25,4.54-1.75,6.85l-8.08,2.64.64,2,7-2.27q-.76,3.86-1.25,7.82l-7.64,3.74.9,1.84,6.48-3.17q-.39,4-.5,8l-7.19,4,1,1.79,6.14-3.42c0,.18,0,.36,0,.55,0,2,.07,4,.18,6l-6.86,4.77,1.17,1.69,5.85-4.06c.16,2.16.37,4.3.66,6.43l-6.42,5,1.26,1.62,5.52-4.3c.33,2.1.71,4.18,1.16,6.24l-6.34,5.46,1.34,1.55,5.52-4.76q.75,3.13,1.68,6.18l-6,5.74,1.41,1.49,5.3-5c.73,2.22,1.53,4.4,2.4,6.55l-5.5,6.4,1.56,1.34,4.81-5.6c.84,2,1.75,3.91,2.7,5.82l-4.88,6.9,1.68,1.18,4.24-6c1,1.85,2,3.66,3.06,5.44l-4.07,7.3,1.79,1,3.51-6.29q1.4,2.23,2.9,4.39l-3.82,7.83,1.84.9,3.34-6.84c1.5,2.06,3,4.07,4.68,6l1.65-2.65c-1.14-1.38-2.23-2.79-3.29-4.22l6,.11Z"/>
    </g>

    <!-- DOOSAN -->
    <g class="doosan">
      <path class="doosan-1" d="M85.36,54.32h8.27c6.59,0,5.81,3.12,4.6,6.54S95.55,67.44,89,67.44H80.71ZM87.28,65h1.14c2.2,0,2.69-.55,3.92-4.11s1.19-4.09-1-4.09H90.18Z"/>
      <path class="doosan-2" d="M109.27,54.06c5.81,0,7.13,1.91,5.4,6.81s-4.41,6.83-10.23,6.83S97.31,65.79,99,60.88s4.4-6.8,10.23-6.81m-4,11.33c1.75,0,2.26-1,3.52-4.52s1.41-4.5-.33-4.49-2.28,1-3.52,4.49-1.43,4.51.32,4.52"/>
      <path class="doosan-3" d="M125.73,54.07c5.82,0,7.14,1.91,5.4,6.81s-4.4,6.83-10.23,6.82-7.13-1.9-5.4-6.82,4.41-6.8,10.23-6.81m-4,11.32c1.74,0,2.27-.95,3.52-4.51s1.41-4.49-.35-4.5-2.24,1-3.51,4.51-1.4,4.5.34,4.5"/>
      <path
        class="doosan-4"
        d="M141.71,58.12l.13-.31c.26-.78,0-1.42-1.13-1.42a2.23,2.23,0,0,0-2.19,1.15c-.9,2.6,8.84,1.34,7.15,6.13-1,2.79-4.15,4-9.17,4-4.72,0-7-1-6-3.7l.16-.45h5.5l-.1.31c-.4,1.12.22,1.52,1.34,1.51a2.26,2.26,0,0,0,2.27-1.27c.93-2.59-8.48-1.3-6.83-6,.94-2.63,3.8-4.09,8.62-4.09s6.64,1.23,5.64,4Z"/>
      <path class="doosan-5" d="M153.94,54.34h7.15l.67,13.11h-6.06l.24-2.29h-4.54L150,67.44H144ZM156.6,57h-.06L153,62.59h3.19Z"/>
      <polygon class="doosan-6" points="167.14 54.34 173.49 54.34 174.31 62.42 174.37 62.42 177.24 54.33 182.56 54.33 177.92 67.45 171.67 67.44 170.74 59.35 170.68 59.34 167.8 67.45 162.49 67.44 167.14 54.34"/>
    </g>
    <!-- //DOOSAN -->

    <!-- SEOUL -->
    <g class="seoul">
      <g class="seoul-1">
        <polygon
          points="114.13 165.64 114.13 171.07 111.25 173.91 105.37 173.91 102.68 171.17 102.68 168.21 107.36 168.21 107.36 169.67 109.33 169.67 109.33 167.36 104.72 167.36 102.56 165.13 102.56 160.5 105.37 157.73 111.39 157.73 113.94 160.33 113.94 162.99 109.45 162.99 109.45 161.95 107.36 161.95 107.36 163.5 112.07 163.5 114.13 165.64"/>
        <polygon
          points="112.73 166.22 111.3 164.79 106.49 164.79 105.93 164.23 105.93 161.49 106.85 160.59 109.91 160.59 110.76 161.49 110.76 161.73 112.73 161.73 112.73 161.13 110.76 159.12 106.06 159.12 104.02 161.13 104.02 164.57 105.5 166.07 110.25 166.07 110.76 166.63 110.76 170.13 109.79 171.07 106.85 171.07 105.93 170.13 105.93 169.45 104.02 169.45 104.02 170.44 106.06 172.5 110.57 172.5 112.73 170.44 112.73 166.22"/>
      </g>
      <g class="seoul-2">
        <polygon
          points="126.87 157.73 126.87 162.92 122.53 162.92 122.53 161.95 120.44 161.95 120.44 163.68 124.28 163.68 124.28 167.8 120.44 167.8 120.44 169.67 122.53 169.67 122.53 168.5 126.87 168.5 126.87 173.91 114.48 173.91 114.48 169.67 115.59 169.67 115.59 161.95 114.48 161.95 114.48 157.73 126.87 157.73"/>
        <polygon
          points="125.42 159.12 115.93 159.12 115.93 160.59 117.05 160.59 117.05 171.07 115.93 171.07 115.93 172.5 125.42 172.5 125.42 169.93 123.97 169.93 123.97 171.07 118.97 171.07 118.97 166.37 122.85 166.37 122.85 165.06 118.97 165.06 118.97 160.59 123.97 160.59 123.97 161.54 125.42 161.54 125.42 159.12"/>
      </g>
      <g class="seoul-3">
        <polygon points="139 160.59 139 171.07 136.14 173.91 130 173.91 127.22 171.07 127.22 160.52 130.08 157.73 136.14 157.73 139 160.59"/>
        <polygon points="137.55 161.17 135.49 159.12 130.76 159.12 128.62 161.17 128.62 170.42 130.59 172.5 135.49 172.5 137.55 170.49 137.55 161.17"/>
      </g>
      <g class="seoul-4">
        <polygon points="135.61 161.54 135.61 170.1 134.66 171.07 131.46 171.07 130.59 170.1 130.59 161.54 131.56 160.59 134.66 160.59 135.61 161.54"/>
        <rect class="cls-1" x="131.99" y="161.95" width="2.18" height="7.71"/>
      </g>
      <g class="seoul-5">
        <polygon
          points="153.37 157.73 153.37 161.95 152.08 161.95 152.08 171.07 149.24 173.91 143.3 173.91 140.48 171.07 140.48 161.95 139.22 161.95 139.22 157.73 145.97 157.73 145.97 161.81 145.34 161.81 145.34 169.67 147.28 169.67 147.28 161.81 146.65 161.81 146.65 157.73 153.37 157.73"/>
        <polygon
          points="151.94 159.12 147.93 159.12 147.93 160.59 148.71 160.59 148.71 170.15 147.79 171.07 144.78 171.07 143.91 170.15 143.91 160.59 144.68 160.59 144.68 159.12 140.68 159.12 140.68 160.59 141.94 160.59 141.94 170.47 143.91 172.5 148.61 172.5 150.65 170.56 150.65 160.59 151.94 160.59 151.94 159.12"/>
      </g>
      <g class="seoul-6">
        <polygon points="161.28 157.73 161.28 161.95 159.94 161.95 159.94 169.67 161.74 169.67 161.74 167.07 166.06 167.07 166.06 173.91 154.02 173.91 154.02 169.67 155.14 169.67 155.14 161.95 154.02 161.95 154.02 157.73 161.28 157.73"/>
        <polygon points="159.84 159.12 155.48 159.12 155.48 160.59 156.59 160.59 156.59 171.07 155.48 171.07 155.48 172.5 164.62 172.5 164.62 168.45 163.17 168.45 163.17 171.07 158.51 171.07 158.51 160.59 159.84 160.59 159.84 159.12"/>
      </g>
    </g>
    <!-- //SEOUL -->

    <g class="frame">
      <path class="cls-4 frame-1" d="M132.9,31.72a80.73,80.73,0,0,1,71.21,42.66h5.34a85.51,85.51,0,0,0-153.11,0h5.34A80.72,80.72,0,0,1,132.9,31.72Z"/>
      <path class="cls-4 frame-2" d="M132.9,193.23A80.73,80.73,0,0,1,61.41,150H56.08a85.52,85.52,0,0,0,153.65,0h-5.33A80.73,80.73,0,0,1,132.9,193.23Z"/>
    </g>

    <!-- BEARS -->
    <g class="bears">
      <polygon class="cls-1" points="51.05 88.06 51.05 105.66 48.11 108.91 51.05 112.04 51.05 130.6 39.07 142.23 0 142.23 0 123.51 4.44 123.51 4.44 95.99 0.02 95.95 0.02 77.25 40.29 77.25 51.05 88.06"/>
      <polygon
        class="cls-1"
        points="100.87 77.25 100.87 98.49 81.9 98.49 81.9 94.84 75.83 94.84 75.83 99.53 90.64 99.53 90.64 117.45 75.83 117.45 75.83 122.64 81.9 122.64 81.9 119 100.76 119 100.87 141.3 50.64 141.3 50.64 122.93 54.65 122.93 54.65 94.79 50.98 94.79 50.98 77.22 100.87 77.25"/>
      <polygon
        class="cls-1"
        points="140.44 77.25 154.61 123.53 160.41 123.53 160.41 142.23 132.05 142.23 132.05 124.53 136 124.53 135.41 122.57 124.84 122.57 124.44 124.53 127.9 124.53 127.9 142.23 100.67 142.23 100.76 119 105.81 124.36 121.39 77.25 140.44 77.25"/>
      <polygon
        class="cls-1"
        points="216.02 123.53 216.02 142.23 188.66 142.23 188.66 124.74 189.59 124.74 187.08 118.82 184.42 118.82 184.42 124.74 188.17 124.74 188.17 142.23 159.83 142.23 159.83 123.52 164.77 123.52 164.77 95.96 160.35 95.96 160.35 77.24 200.1 77.24 211.06 88.42 210.88 107.56 205.65 112.89 210.39 123.53 216.02 123.53"/>
      <polygon
        class="cls-1"
        points="261.78 108.32 261.56 130.76 249.68 142.23 226.32 142.23 215.33 131.38 215.32 117.89 235.28 117.89 235.28 123.65 241 123.65 241 116.94 223.89 116.94 214.91 107.95 214.84 88.71 226.44 77.25 250.8 77.24 260.79 87.44 260.79 100.11 241.3 100.11 241.3 95.8 235.18 95.8 235.18 99.71 254.02 100.17 261.78 108.32"/>
      <polygon class="cls-1" points="56.13 94.11 56.13 110.83 56.04 114.27 56.13 117.21 55.07 135.77 43.92 146.73 4.39 146.71 0.02 142.19 9.65 128.73 9.65 101.18 5.11 101.18 5.11 82.42 44.83 82.42 56.13 94.11"/>
      <polygon
        class="cls-1"
        points="105.62 82.31 105.62 104.13 86.66 104.13 86.66 100.6 80.59 100.6 80.59 103.28 95.54 103.28 95.54 123.22 80.59 123.22 80.59 128.4 86.66 128.4 86.66 124.11 105.62 124.27 105.6 146.73 55.81 146.73 49.95 140.6 59.41 128.7 59.41 100.55 55.4 100.55 100.75 77.32 105.62 82.31"/>
      <polygon
        class="cls-1"
        points="145.3 82.26 159.62 129.03 165.42 129.03 165.42 146.71 125.96 146.73 125.96 129.71 141.01 129.71 140.42 127.74 129.85 127.74 129.46 129.71 132.91 129.71 132.91 146.73 105.6 146.73 105.6 129.03 111 129.03 140.44 77.25 145.3 82.26"/>
      <polygon
        class="cls-1"
        points="220.79 129.28 220.79 146.71 187.88 146.71 193.75 130.17 194.67 130.17 192.17 124.25 189.5 124.25 189.5 130.17 193.26 130.17 193.26 146.71 164.91 146.71 164.91 129.28 169.75 129.28 169.75 101.23 165.21 101.23 165.21 82.73 205.46 82.73 215.65 93.07 215.7 111.89 210.28 117.28 215.44 128.51 220.79 129.28"/>
      <polygon
        class="cls-1"
        points="266.34 113 266.34 135.03 254.49 146.76 230.88 146.78 220.65 136.57 220.22 123.39 240.36 123.39 240.36 128.83 246.09 128.83 246.09 122.11 228.94 122.15 220.27 113.17 219.65 93.59 231.17 82.27 255.44 81.97 265.58 92.32 265.57 104.39 246.39 104.39 246.39 100.98 240.27 100.98 240.27 104.88 258.44 104.88 266.34 113"/>
      <polygon
        class="cls-1"
        points="265.19 113.46 265.19 134.54 254 145.55 231.23 145.55 220.79 134.91 220.79 123.43 238.95 123.43 238.95 129.08 246.57 129.08 246.57 120.14 228.69 120.14 220.32 111.49 220.32 93.52 231.23 82.79 254.56 82.79 264.44 92.86 264.44 103.21 247.04 103.21 247.04 99.16 238.95 99.16 238.95 105.18 257.2 105.18 265.19 113.46"/>
      <polygon class="cls-2" points="54.82 93.9 54.82 110.17 51.77 113.46 54.82 116.51 54.82 134.44 43.44 145.55 5.43 145.55 1.24 141.21 9.85 129.08 9.85 99.16 10.37 98.9 5.43 82.8 44.09 82.8 54.82 93.9"/>
      <polygon class="cls-2" points="2.37 140.8 10.3 129.54 10.3 98.13 5.8 98.13 5.8 83.12 43.23 83.22 54.26 94.09 54.26 109.86 50.84 113.5 54.25 116.88 54.25 125.13 53.63 125.02 53.37 135.05 43.42 144.66 6.14 144.67 2.37 140.8"/>
      <polygon class="cls-4" points="50.62 89.55 50.62 105.83 47.71 108.93 50.62 112.03 50.62 130.1 39.24 141.2 1.23 141.2 1.23 124.74 5.65 124.74 5.65 94.82 1.23 94.82 1.23 78.45 39.9 78.45 50.62 89.55"/>
      <polygon class="cls-1" points="46.35 92.47 36.51 82.71 5.5 82.71 5.5 90.53 9.91 90.53 9.91 129 5.49 129 5.49 136.93 36.04 136.93 46.35 127 46.35 114.11 39.99 109.12 46.35 104.13 46.35 92.47"/>
      <polygon class="cls-4" points="32.6 90.53 36.09 93.13 36.09 103.1 32.79 105.3 20.1 105.3 20.1 90.53 32.6 90.53"/>
      <polygon class="cls-4" points="32.41 113.02 36.08 115.71 36.08 126.24 32.13 128.99 20.09 128.99 20.09 113.02 32.41 113.02"/>
      <rect class="cls-2" x="24.37" y="94.82" width="7.44" height="6.21"/>
      <rect class="cls-2" x="24.37" y="117.31" width="7.44" height="7.43"/>
      <polygon
        class="cls-2"
        points="104.44 82.8 104.42 102.95 87.49 102.95 87.6 99.16 79.51 99.16 86.09 97.08 94.37 105.89 94.37 121.84 79.51 121.84 79.51 129.08 87.6 129.08 100.24 120.22 104.44 124.56 104.44 145.55 56.36 145.55 52.16 141.2 62.46 137.11 60.69 99.16 63.25 99.98 100.25 78.44 104.44 82.8"/>
      <polygon
        class="cls-2"
        points="89.81 102.31 93.48 106.23 93.48 120.96 78.67 120.96 78.67 129.95 88.34 129.95 100.19 121.44 103.55 124.9 103.55 144.67 56.71 144.67 52.89 140.71 61.48 129.85 61.48 98.44 57.21 98.44 99.65 79.13 103.55 83.18 103.55 102.06 89.79 102.06 89.81 102.31"/>
      <polygon
        class="cls-4"
        points="100.24 78.45 100.24 98.58 83.4 98.58 83.4 94.82 75.31 94.82 75.31 101.5 90.17 101.5 90.17 117.49 75.31 117.49 75.31 124.74 83.4 124.74 83.4 120.22 100.24 120.22 100.24 141.2 52.16 141.2 52.16 124.74 56.49 124.74 56.49 94.82 52.16 94.82 52.16 78.45 100.24 78.45"/>
      <polygon
        class="cls-1"
        points="95.97 82.7 56.43 82.7 56.43 90.53 60.76 90.53 60.76 129 56.43 129 56.43 136.92 95.97 136.92 95.97 124.49 87.67 124.49 87.67 129 71.04 129 71.04 113.21 85.9 113.21 85.9 105.77 71.02 105.77 71.02 90.53 87.67 90.53 87.67 94.3 95.97 94.3 95.97 82.7"/>
      <rect class="cls-1" x="124.1" y="114.4" width="18.56" height="21.13"/>
      <rect class="cls-1" x="181.18" y="114.4" width="18.56" height="21.13"/>
      <rect class="cls-1" x="231.15" y="116.57" width="18.55" height="21.13"/>
      <rect class="cls-1" x="181.13" y="114.4" width="18.55" height="21.13"/>
      <rect class="cls-1" x="231.1" y="116.57" width="18.56" height="21.13"/>
      <polygon
        class="cls-2"
        points="144.22 82.8 157.71 126.77 159.88 124.74 164.07 129.09 164.07 145.56 137.73 145.56 133.77 141.27 141.77 129.75 140.65 126.18 128.69 126.18 127.57 129.75 131.42 129.75 138.71 145.56 105.92 145.56 101.73 141.21 111.1 129.09 140.03 78.46 144.22 82.8"/>
      <polygon
        class="cls-2"
        points="143.43 83.28 157.72 129.87 159.5 125.64 163.19 129.48 163.19 144.66 134.75 144.66 130.61 136.52 143.26 130.5 141.47 125.22 127.86 125.22 126.27 130.5 130.43 130.5 137.7 144.66 106.29 144.66 102.45 140.67 112.22 130.06 139.78 79.49 143.43 83.28"/>
      <rect class="cls-2" x="124.1" y="114.4" width="18.55" height="21.14"/>
      <polygon
        class="cls-4"
        points="140.03 78.46 154.23 124.74 159.88 124.74 159.88 141.21 133.53 141.21 133.53 125.4 137.58 125.4 136.45 121.83 124.5 121.83 123.37 125.4 127.22 125.4 127.22 141.21 101.73 141.21 101.73 124.74 106.9 124.74 122.24 78.46 140.03 78.46"/>
      <polygon class="cls-1" points="136.84 82.73 125.32 82.73 110.01 129 106 129 106 136.94 122.95 136.94 122.95 129 117.52 129 121.51 117.56 139.49 117.56 143.29 128.99 137.79 128.99 137.79 136.94 155.6 136.94 155.6 129 151.05 129 136.84 82.73"/>
      <polygon class="cls-4" points="131.18 89.56 138.42 112.9 122.52 112.9 130.15 89.56 131.18 89.56"/>
      <polygon class="cls-2" points="130.61 102.16 128.45 108.66 132.69 108.66 130.61 102.16"/>
      <polygon
        class="cls-1"
        points="214.75 125.66 219.01 129.93 219.01 144.71 195.31 144.71 187.5 136.13 197.38 130.85 192.94 121.27 187.51 121.27 187.51 130.85 190.87 130.85 196.83 144.71 166.51 144.71 162.28 140.38 171.11 129.96 171.11 98.55 166.51 98.55 166.51 83.49 203.47 83.7 213.68 94.05 213.68 110.9 207.75 116.95 212.78 127.04 214.75 125.66"/>
      <rect class="cls-1" x="181.19" y="114.4" width="18.56" height="21.14"/>
      <rect class="cls-1" x="231.16" y="116.57" width="18.56" height="21.13"/>
      <polygon
        class="cls-2"
        points="215.38 124.74 219.6 129.02 219.63 145.55 194.58 145.53 186.27 136.67 195.99 130.18 192.32 122.18 188.27 122.18 188.27 130.18 191.56 130.18 197.53 145.53 165.94 145.55 161.58 141.22 170.21 129.24 170.21 99.32 168.3 98.94 165.79 82.95 203.87 82.72 214.5 93.54 214.51 111.44 208.85 117.04 213.41 126.89 215.38 124.74"/>
      <polygon
        class="cls-2"
        points="265.15 113.47 265.15 134.55 253.96 145.56 231.26 145.57 220.82 134.93 220.74 123.44 238.9 123.44 238.9 129.09 246.53 129.09 246.53 120.15 228.65 120.15 220.27 111.5 220.27 93.53 231.19 82.8 254.52 82.8 264.4 92.87 264.4 103.22 246.99 103.22 246.99 99.17 238.9 99.17 238.9 105.19 257.15 105.19 265.15 113.47"/>
      <polygon
        class="cls-2"
        points="265.15 113.47 265.15 134.55 253.96 145.56 231.26 145.57 220.82 134.93 220.74 123.44 238.9 123.44 238.9 129.09 246.53 129.09 246.53 120.15 228.65 120.15 220.27 111.5 220.27 93.53 231.19 82.8 254.53 82.75 264.4 92.78 264.4 103.22 246.99 103.22 246.99 99.17 238.9 99.17 236.67 102.96 254.93 102.96 265.15 113.47"/>
      <path
        class="cls-2"
        d="M214.67,125.44l4,4.15.06,15.07H195.14l-7.84-8.51,9.89-5.28-4.44-9.58h-5.43v9.58h3.36l6,13.79H166.19l-4.34-4.3L170.92,130V98.58h-4.6V83.52l36.94.06,10.21,10.34,0,17.09-5.82,5.85,4.76,10.34C212.57,127.37,214.67,125.44,214.67,125.44Z"/>
      <polygon
        class="cls-2"
        points="264.27 113.81 264.26 134.19 253.62 144.67 231.63 144.68 221.5 134.4 221.57 124.32 238.22 124.32 238.22 129.85 247.41 129.85 247.41 119.28 228.94 119.28 221.11 111.19 221.11 93.96 231.77 83.49 253.97 83.43 263.53 93.19 263.51 102.33 247.91 102.33 247.91 98.35 238.03 98.35 238.03 105.95 256.49 105.77 264.27 113.81"/>
      <rect class="cls-2" x="181.14" y="114.4" width="18.55" height="21.14"/>
      <rect class="cls-2" x="231.1" y="116.57" width="18.56" height="21.13"/>
      <rect class="cls-2" x="234.46" y="85.76" width="18.55" height="21.14"/>
      <polygon
        class="cls-4"
        points="215.39 124.74 215.39 141.21 190.36 141.21 190.36 125.69 191.78 125.69 188.1 117.69 184.06 117.69 184.06 125.69 187.35 125.69 187.35 141.21 161.58 141.21 161.58 124.74 166 124.74 166 94.83 161.58 94.83 161.58 78.46 199.68 78.46 210.31 89.27 210.31 106.87 204.48 112.7 210.03 124.74 215.39 124.74"/>
      <polygon
        class="cls-1"
        points="211.11 128.98 207.33 128.98 199.35 111.82 206.05 105 206.03 90.93 197.84 82.67 165.83 82.67 165.83 90.52 170.25 90.52 170.25 128.98 165.84 128.98 165.84 136.92 183.09 136.92 183.09 128.98 179.8 128.98 179.8 113.4 190.96 113.43 198.21 128.98 194.61 128.98 194.61 136.92 211.11 136.92 211.11 128.98"/>
      <polygon class="cls-4" points="196.41 93.98 196.41 101.59 192.45 105.54 180.42 105.54 180.42 90.5 192.83 90.5 196.41 93.98"/>
      <rect class="cls-2" x="184.71" y="94.79" width="7.43" height="6.49"/>
      <polygon
        class="cls-4"
        points="260.95 109.13 260.95 130.2 249.76 141.21 226.99 141.21 216.55 130.58 216.55 119.1 234.7 119.1 234.7 124.74 242.32 124.74 242.32 115.81 224.45 115.81 216.08 107.15 216.08 89.18 226.99 78.46 250.32 78.46 260.2 88.52 260.2 98.87 242.79 98.87 242.79 94.83 234.7 94.83 234.7 100.85 252.96 100.85 260.95 109.13"/>
      <polygon
        class="cls-1"
        points="256.68 110.87 251.11 105.11 232.6 105.1 230.44 102.93 230.44 94.03 234.01 90.55 243.77 90.55 247.06 94.03 247.06 94.59 256.71 94.59 256.71 91.04 248.49 82.7 228.71 82.7 220.33 91.04 220.34 105.41 226.22 111.53 244.62 111.53 246.59 113.69 246.59 125.34 242.83 129.01 234 129.01 230.43 125.34 230.43 123.36 220.81 123.36 220.81 128.84 228.85 136.96 247.96 136.91 256.68 128.5 256.68 110.87"/>
    </g>
    <!-- //BEARS -->
  </g>
</svg>
