<svg xmlns="http://www.w3.org/2000/svg" aria-hidden="true" role="img" width="140" height="50" viewBox="0 0 38 14" style="background: #131230;">
  <!-- 트게더 두산베어스 커뮤니티 로고 -->
  <g id="tgd-logo" aria-label="곰게더" transform="translate(-0.6, 0)" style="fill: #fff;">
    <path
      d="m 0.62325572,3.1423679 c 0,0.4953 0.36829997,0.7874 0.77469998,0.7874 h 6.3373 v 0.2413 c 0,0.6096 -0.1143,1.5113 -0.3556,2.159 h 2.4637998 c 0.3428995,-0.8001 0.4698995,-1.8923 0.4698995,-2.6924 v -1.6637 H 0.63595572 Z m 9.51229928,5.4864 c 0.5461,0 0.8128,-0.2286 0.8128,-0.7747 v -1.1811 H 5.9064557 v -1.9812 h -2.5781 v 1.9812 H 0.05175575 v 1.1811 c 0,0.5461 0.2667,0.7747 0.81279997,0.7747 z M 0.66135572,12.857868 c 0,0.507999 0.3048,0.800099 0.82549998,0.800099 h 8.0263998 c 0.5206995,0 0.8254995,-0.2921 0.8254995,-0.800099 V 9.0859679 H 0.66135572 Z m 2.56539998,-1.143 v -0.6858 h 4.5339 v 0.6858 z"/>
    <path
      d="m 18.576822,1.9358679 h -2.3114 v 4.2037 h -0.4191 v -4.1656 h -5.0038 v 1.2065 c 0,0.4953 0.3429,0.7747 0.7493,0.7747 h 1.8161 v 3.5433 c 0,2.7305001 -0.9017,3.9878001 -2.5654,3.9878001 v 2.019299 c 1.6764,0 2.9337,-0.482599 3.7592,-1.447799 0.6985,-0.8128 1.1049,-2.0828001 1.2192,-3.8227001 h 0.4445 v 5.3593991 h 0.9906 c 0.8001,0 1.3208,-0.520699 1.3208,-1.269999 z m 0.3429,11.6585991 h 0.850899 c 0.4445,0 0.8001,-0.1524 1.0795,-0.457199 0.2794,-0.2921 0.4191,-0.635 0.4191,-1.0287 V 1.9358679 h -2.349499 z"/>
    <path
      d="m 21.798388,12.654668 c 0,0.571499 0.3175,0.876299 0.889,0.876299 h 3.1496 c 0.6604,0 1.5748,-0.0381 2.4511,-0.2921 v -1.993899 c -0.8636,0.2413 -1.6891,0.3175 -2.3876,0.3175 h -1.524 V 3.9170679 l 2.794,0.0127 c 0.4953,0 0.7493,-0.2159 0.7493,-0.7112 v -1.2827 h -6.1214 z m 9.5885,-10.7569001 h -2.5781 v 4.5847 h -2.7813 v 1.3335 c 0,0.4191 0.3048,0.7112 0.7239,0.7112 h 2.0574 v 5.0418991 h 0.9271 c 0.4699,0 0.8509,-0.1651 1.1684,-0.482599 0.3175,-0.3175 0.4826,-0.6985 0.4826,-1.1684 z"/>
  </g>
  <!-- //트게더 두산베어스 커뮤니티 로고 -->

  <!-- 두산베어스 심볼 마크 -->
  <g id="doosan-mark">
    <g class="line-out" transform="matrix(0.03037176,0,0,-0.02930929,31.944638,0.05408531)" style="fill: #ed1C24;" >
      <path d="M 0,0 V -51.917 H 19.668 V -157.646 H 0 v -52.016 h 115.353 l 35.208,35.206 v 139.243 l -35.208,35.208 z"/>
    </g>
    <g class="bg-mark" transform="matrix(0.03037176,0,0,-0.02930929,32.337928,0.41829134)" style="fill: #fff;">
      <path d="M 0,0 V -26.643 H 19.033 V -157.327 H 0 v -26.637 h 96.428 l 27.597,27.588 V -27.91 L 95.955,0 Z"/>
    </g>
    <path class="line-inner" d="M 35.329255,5.061982 H 33.73653 V 1.2069897 h 1.592725 z" style="fill: #ed1C24;" />
    <path class="bg-inner" d="M 34.931081,4.6776786 H 34.121826 V 1.578778 h 0.809255 z"  style="fill: #131230;" />
  </g>
  <!-- //두산베어스 심볼 마크 -->
</svg>
